<svg width="251" height="65" viewBox="0 0 251 65" fill="none" xmlns="http://www.w3.org/2000/svg">
<path d="M166.938 54.826H249.844V63.7411H166.938V54.826Z" fill="#13131A"/>
<path d="M237.914 0H247.974V55.2136H237.914V0Z" fill="#13131A"/>
<path d="M247.303 24.5489H249.946V28.339H247.303V24.5489Z" fill="#13131A"/>
<path d="M232.746 54.869C214.04 39.017 190.937 40.8897 177.274 54.869V60H204.64H232.746V54.869Z" fill="#13131A"/>
<path d="M3.11436 48.0956H4.77825C7.36101 48.0956 8.42888 49.4863 8.42888 51.3985C8.42888 53.9813 6.96366 55.223 4.62925 55.3472L3.83455 55.372V56.9614H4.60441C8.50338 56.9614 11.0116 54.3041 11.0116 51.3737C11.0116 47.9962 8.75172 46.3572 5.07626 46.3572H0.705444V63.7411H3.11436V48.0956Z" fill="#13131A"/>
<path d="M17.1903 46.3572L10.1126 63.7411H12.447L14.3095 58.6253H20.9403L22.7283 63.7411H25.5098L19.028 46.3572H17.1903ZM14.9801 56.8869C15.9238 54.478 16.8426 52.069 17.7367 48.9399H17.7863C18.6555 52.069 19.4999 54.478 20.3691 56.8869H14.9801Z" fill="#13131A"/>
<path d="M29.913 48.0956H31.9742C33.5884 48.0956 34.9295 48.9151 34.9295 51.0508C34.9295 52.5161 34.3583 54.8008 31.2789 54.8008H29.913V48.0956ZM27.5041 63.7411H29.913V56.5392H32.4709L36.494 64.0391L38.9278 63.2941L34.6066 55.8935C36.2705 54.8256 37.5122 53.3853 37.5122 50.8273C37.5122 47.8224 35.302 46.3572 32.4709 46.3572H27.5041V63.7411Z" fill="#13131A"/>
<path d="M41.3035 63.7411H50.9392V62.0027H43.7125V46.3572H41.3035V63.7411Z" fill="#13131A"/>
<path d="M58.1522 46.3572L51.0744 63.7411H53.4088L55.2714 58.6253H61.9021L63.6902 63.7411H66.4716L59.9899 46.3572H58.1522ZM55.9419 56.8869C56.8856 54.478 57.8045 52.069 58.6985 48.9399H58.7482C59.6174 52.069 60.4618 54.478 61.331 56.8869H55.9419Z" fill="#13131A"/>
<path d="M87.3399 46.3572H85.08C82.6463 50.9763 80.1877 55.6203 77.7291 60.5127C75.5189 55.6203 73.2838 50.9763 71.0487 46.3572H68.4659V63.7411H70.4527V49.5856H70.5023C71.1729 51.8704 74.7738 59.2958 76.9344 63.7411H77.9029C80.2373 59.2958 84.186 51.622 84.8813 49.5856H84.931V63.7411H87.3399V46.3572Z" fill="#13131A"/>
<path d="M100.073 46.3572H91.5055V63.7411H101.141V62.0027H93.9144V55.4465H99.9491V53.7081H93.9144V48.0956H100.073V46.3572Z" fill="#13131A"/>
<path d="M119.073 46.3572H117.086V60.2147H117.037C115.87 58.4763 109.462 50.877 105.638 46.3572H103.85V63.7411H105.837V49.9085H105.886C106.929 51.4234 113.411 59.2213 117.186 63.7411H119.073V46.3572Z" fill="#13131A"/>
<path d="M129.261 63.7411V48.0956H134.849V46.3572H121.29V48.0956H126.852V63.7411H129.261Z" fill="#13131A"/>
<path d="M140.585 46.3572L133.507 63.7411H135.842L137.704 58.6253H144.335L146.123 63.7411H148.905L142.423 46.3572H140.585ZM138.375 56.8869C139.319 54.478 140.238 52.069 141.132 48.9399H141.181C142.05 52.069 142.895 54.478 143.764 56.8869H138.375Z" fill="#13131A"/>
<path d="M153.308 48.0956H155.369C156.983 48.0956 158.324 48.9151 158.324 51.0508C158.324 52.5161 157.753 54.8008 154.674 54.8008H153.308V48.0956ZM150.899 63.7411H153.308V56.5392H155.866L159.889 64.0391L162.323 63.2941L158.002 55.8935C159.665 54.8256 160.907 53.3853 160.907 50.8273C160.907 47.8224 158.697 46.3572 155.866 46.3572H150.899V63.7411Z" fill="#13131A"/>
<path d="M30.642 21.7805H33.5117C36.4183 21.7805 39.5087 23.0682 39.5087 26.6738C39.5087 29.7643 37.0069 31.3463 34.1004 31.3463H30.642V21.7805ZM34.3212 33.9217C39.6559 33.9217 43.3351 30.7576 43.3351 26.453C43.3351 22.2588 39.8767 20.1617 36.4918 20.0513V19.9777C38.4786 19.6098 41.753 17.6231 41.753 13.4289C41.753 10.0808 38.8833 8.16769 35.057 8.16769H27.0732V33.9217H34.3212ZM30.642 10.7431H33.6589C36.6022 10.7431 38.1843 12.0308 38.1843 14.3119C38.1843 17.0712 35.4985 19.2051 32.408 19.2051H30.642V10.7431Z" fill="#56565C"/>
<path d="M47.8317 8.16769V23.9144C47.8317 30.5369 50.7382 34.3632 57.9861 34.3632C64.2038 34.3632 67.7726 30.2425 67.7726 24.4663V8.16769H64.4246V24.3927C64.4246 28.0719 62.8058 31.8982 57.9861 31.8982C53.3872 31.8982 51.4004 29.102 51.4004 23.7673V8.16769H47.8317Z" fill="#56565C"/>
<path d="M87.3615 10.3016C85.9266 8.68277 83.6823 7.7262 80.9965 7.7262C76.9863 7.7262 73.6383 10.3384 73.6383 13.7968C73.6383 17.4391 76.0297 19.0212 78.1636 20.6768C80.2607 22.222 84.1238 24.3191 84.1238 27.5568C84.1238 30.4265 82.1739 31.7878 79.6353 31.7878C77.207 31.7878 75.5514 30.6105 74.043 29.5435L72.4609 31.6774C74.3005 33.4802 77.2438 34.3632 79.7088 34.3632C83.8295 34.3632 87.6926 31.7142 87.6926 27.6304C87.6926 24.3191 85.6323 21.9645 82.1003 19.3891C78.7891 16.9976 77.207 15.6364 77.207 13.7968C77.207 11.81 78.6419 10.3016 81.2173 10.3016C82.7625 10.3016 84.4181 11.2214 85.669 12.1412L87.3615 10.3016Z" fill="#56565C"/>
<path d="M113.65 10.3384C111.958 9.01389 109.382 7.7262 105.703 7.7262C96.4685 7.7262 91.3913 14.4958 91.3913 20.9711C91.3913 28.0719 96.0638 34.3632 105.262 34.3632C108.573 34.3632 111.627 33.1859 113.356 32.0085L111.958 29.8746C110.449 30.9048 108.242 31.7878 105.446 31.7878C99.8165 31.7878 95.3279 27.4096 95.3279 20.8975C95.3279 14.8637 99.0807 10.3016 105.446 10.3016C108.205 10.3016 110.964 11.5525 112.178 12.5459L113.65 10.3384Z" fill="#56565C"/>
<path d="M125.114 8.16769L114.628 33.9217H118.087L120.846 26.3427H130.67L133.319 33.9217H137.439L127.837 8.16769H125.114ZM121.84 23.7673C123.238 20.1985 124.599 16.6297 125.923 11.994H125.997C127.285 16.6297 128.536 20.1985 129.823 23.7673H121.84Z" fill="#56565C"/>
</svg>
