<svg width="2788" height="953" viewBox="0 0 2788 953" fill="none" xmlns="http://www.w3.org/2000/svg">
<path d="M1877 659.074H2778.37V756H1877V659.074Z" fill="#13131A"/>
<path d="M2648.66 63H2758.03V663.287H2648.66V63Z" fill="#13131A"/>
<path d="M2750.74 329.898H2779.47V371.104H2750.74V329.898Z" fill="#13131A"/>
<path d="M1989.38 659.541C2137.93 507.556 2389.1 487.197 2592.47 659.541H1989.38Z" fill="#13131A"/>
<path d="M394.884 300H426.084C457.684 300 491.284 314 491.284 353.2C491.284 386.8 464.084 404 432.484 404H394.884V300ZM434.884 432C492.884 432 532.884 397.6 532.884 350.8C532.884 305.2 495.284 282.4 458.484 281.2V280.4C480.084 276.4 515.684 254.8 515.684 209.2C515.684 172.8 484.484 152 442.884 152H356.084V432H434.884ZM394.884 180H427.684C459.684 180 476.884 194 476.884 218.8C476.884 248.8 447.684 272 414.084 272H394.884V180ZM581.772 152V323.2C581.772 395.2 613.372 436.8 692.172 436.8C759.772 436.8 798.572 392 798.572 329.2V152H762.172V328.4C762.172 368.4 744.572 410 692.172 410C642.172 410 620.572 379.6 620.572 321.6V152H581.772ZM1011.54 175.2C995.944 157.6 971.544 147.2 942.344 147.2C898.744 147.2 862.344 175.6 862.344 213.2C862.344 252.8 888.344 270 911.544 288C934.344 304.8 976.344 327.6 976.344 362.8C976.344 394 955.144 408.8 927.544 408.8C901.144 408.8 883.144 396 866.744 384.4L849.544 407.6C869.544 427.2 901.544 436.8 928.344 436.8C973.144 436.8 1015.14 408 1015.14 363.6C1015.14 327.6 992.744 302 954.344 274C918.344 248 901.144 233.2 901.144 213.2C901.144 191.6 916.744 175.2 944.744 175.2C961.544 175.2 979.544 185.2 993.144 195.2L1011.54 175.2ZM1297.36 175.6C1278.96 161.2 1250.96 147.2 1210.96 147.2C1110.56 147.2 1055.36 220.8 1055.36 291.2C1055.36 368.4 1106.16 436.8 1206.16 436.8C1242.16 436.8 1275.36 424 1294.16 411.2L1278.96 388C1262.56 399.2 1238.56 408.8 1208.16 408.8C1146.96 408.8 1098.16 361.2 1098.16 290.4C1098.16 224.8 1138.96 175.2 1208.16 175.2C1238.16 175.2 1268.16 188.8 1281.36 199.6L1297.36 175.6ZM1421.99 152L1307.99 432H1345.59L1375.59 349.6H1482.39L1511.19 432H1555.99L1451.59 152H1421.99ZM1386.39 321.6C1401.59 282.8 1416.39 244 1430.79 193.6H1431.59C1445.59 244 1459.19 282.8 1473.19 321.6H1386.39Z" fill="#56565C"/>
<path d="M95.8954 585.9H113.985C142.065 585.9 153.675 601.02 153.675 621.81C153.675 649.89 137.745 663.39 112.365 664.74L103.725 665.01V682.29H112.095C154.485 682.29 181.755 653.4 181.755 621.54C181.755 584.82 157.185 567 117.225 567H69.7054V756H95.8954V585.9ZM248.931 567L171.981 756H197.361L217.611 700.38H289.701L309.141 756H339.381L268.911 567H248.931ZM224.901 681.48C235.161 655.29 245.151 629.1 254.871 595.08H255.411C264.861 629.1 274.041 655.29 283.491 681.48H224.901ZM387.253 585.9H409.663C427.213 585.9 441.793 594.81 441.793 618.03C441.793 633.96 435.583 658.8 402.103 658.8H387.253V585.9ZM361.063 756H387.253V677.7H415.063L458.803 759.24L485.263 751.14L438.283 670.68C456.373 659.07 469.873 643.41 469.873 615.6C469.873 582.93 445.843 567 415.063 567H361.063V756ZM511.092 756H615.852V737.1H537.282V567H511.092V756ZM694.272 567L617.322 756H642.702L662.952 700.38H735.042L754.482 756H784.722L714.252 567H694.272ZM670.242 681.48C680.502 655.29 690.492 629.1 700.212 595.08H700.752C710.202 629.1 719.382 655.29 728.832 681.48H670.242ZM1011.6 567H987.035C960.575 617.22 933.845 667.71 907.115 720.9C883.085 667.71 858.785 617.22 834.485 567H806.405V756H828.005V602.1H828.545C835.835 626.94 874.985 707.67 898.475 756H909.005C934.385 707.67 977.315 624.24 984.875 602.1H985.415V756H1011.6V567ZM1150.04 567H1056.89V756H1161.65V737.1H1083.08V665.82H1148.69V646.92H1083.08V585.9H1150.04V567ZM1356.61 567H1335.01V717.66H1334.47C1321.78 698.76 1252.12 616.14 1210.54 567H1191.1V756H1212.7V605.61H1213.24C1224.58 622.08 1295.05 706.86 1336.09 756H1356.61V567ZM1467.38 756V585.9H1528.13V567H1380.71V585.9H1441.19V756H1467.38ZM1590.49 567L1513.54 756H1538.92L1559.17 700.38H1631.26L1650.7 756H1680.94L1610.47 567H1590.49ZM1566.46 681.48C1576.72 655.29 1586.71 629.1 1596.43 595.08H1596.97C1606.42 629.1 1615.6 655.29 1625.05 681.48H1566.46ZM1728.82 585.9H1751.23C1768.78 585.9 1783.36 594.81 1783.36 618.03C1783.36 633.96 1777.15 658.8 1743.67 658.8H1728.82V585.9ZM1702.63 756H1728.82V677.7H1756.63L1800.37 759.24L1826.83 751.14L1779.85 670.68C1797.94 659.07 1811.44 643.41 1811.44 615.6C1811.44 582.93 1787.41 567 1756.63 567H1702.63V756Z" fill="#13131A"/>
</svg>
