<svg width="1400" height="547" viewBox="0 0 1400 547" fill="none" xmlns="http://www.w3.org/2000/svg">
<g opacity="0.2">
<path d="M1400 469.927L698.749 469.927V546.341L1400 546.341V469.927Z" fill="#13131A"/>
<path d="M799.657 0L714.569 0L714.569 473.249H799.657L799.657 0Z" fill="#13131A"/>
<path d="M720.24 210.415H697.886V242.9H720.24V210.415Z" fill="#13131A"/>
<path d="M1312.57 392.688C1154.35 528.559 958.939 512.508 843.371 392.688H1067.07H1312.57Z" fill="#13131A"/>
<path d="M0 469.927H701.251V546.341H0V469.927Z" fill="#13131A"/>
<path d="M600.343 0H685.431V473.249H600.343V0Z" fill="#13131A"/>
<path d="M679.76 210.415H702.114V242.9H679.76V210.415Z" fill="#13131A"/>
<path d="M556.63 470.296C398.406 334.425 202.997 350.476 87.4282 470.296V514.275H318.895H556.63V470.296Z" fill="#13131A"/>
</g>
</svg>
